<svg viewBox="0 0 430 400" xmlns="http://www.w3.org/2000/svg" >
<g><path style="opacity:1" fill="#4fb4cd" d="M 289.5,44.5 C 291.975,47.2411 294.975,49.2411 298.5,50.5C 305.201,57.203 312.201,63.5364 319.5,69.5C 324.5,76.1667 329.5,82.8333 334.5,89.5C 342.532,103.263 348.198,117.93 351.5,133.5C 353.152,147.093 353.819,160.76 353.5,174.5C 351.593,185.23 349.26,195.897 346.5,206.5C 345.262,208.214 344.595,210.214 344.5,212.5C 339.024,223.451 333.024,234.117 326.5,244.5C 324.367,246.091 322.701,248.091 321.5,250.5C 319.704,251.793 318.037,253.293 316.5,255C 315.207,255.49 313.873,255.657 312.5,255.5C 312.343,254.127 312.51,252.793 313,251.5C 315.985,248.838 318.485,245.838 320.5,242.5C 329.459,230.922 336.626,218.255 342,204.5C 342.494,202.866 342.66,201.199 342.5,199.5C 351.069,175.73 351.735,151.73 344.5,127.5C 343.171,119.866 340.504,112.866 336.5,106.5C 334.846,100.854 332.346,95.5206 329,90.5C 322.969,82.9759 316.802,75.6426 310.5,68.5C 306.792,64.7899 302.792,61.4566 298.5,58.5C 278.511,42.3205 255.511,32.8205 229.5,30C 206.763,28.3449 184.763,31.6782 163.5,40C 159.113,42.0512 155.113,44.5512 151.5,47.5C 148.411,48.7389 145.411,50.2389 142.5,52C 137.05,56.0488 132.05,60.5488 127.5,65.5C 120.022,71.968 113.689,79.3013 108.5,87.5C 105.193,91.4263 102.36,95.7596 100,100.5C 97.9345,103.961 96.4345,107.627 95.5,111.5C 91.61,120.38 88.9433,129.713 87.5,139.5C 85.9993,146.27 85.3326,153.27 85.5,160.5C 85.5008,165.346 85.8341,170.012 86.5,174.5C 87.8275,186.648 90.4941,198.482 94.5,210C 94.8361,211.03 95.5028,211.53 96.5,211.5C 97.6907,215.904 99.1907,220.238 101,224.5C 103.757,227.429 105.924,230.762 107.5,234.5C 110.506,237.854 113.006,241.52 115,245.5C 118.614,248.098 121.781,251.098 124.5,254.5C 124.5,255.5 124.5,256.5 124.5,257.5C 122.801,257.66 121.134,257.494 119.5,257C 113.595,250.603 107.929,244.103 102.5,237.5C 99.4688,231.256 95.9688,225.256 92,219.5C 91.0948,215.163 89.5948,211.163 87.5,207.5C 84.398,198.088 82.398,188.421 81.5,178.5C 81.3241,164.482 81.6574,150.482 82.5,136.5C 84.4882,125.205 87.4882,114.205 91.5,103.5C 97.7352,92.0334 104.735,81.0334 112.5,70.5C 116.806,66.8604 120.806,62.8604 124.5,58.5C 139.967,45.7598 157.3,36.0931 176.5,29.5C 216.327,19.0193 253.994,24.0193 289.5,44.5 Z"/></g>
<g><path style="opacity:1" fill="#52b6d1" d="M 252.5,101.5 C 264.312,108.978 273.312,118.978 279.5,131.5C 277.598,134.337 276.931,137.671 277.5,141.5C 276.224,139.438 275.39,137.104 275,134.5C 273.301,131.079 271.135,128.079 268.5,125.5C 266.594,120.592 263.261,116.925 258.5,114.5C 252.169,107.991 244.503,103.491 235.5,101C 225.283,98.6562 214.95,97.9895 204.5,99C 203.584,99.2784 202.918,99.7784 202.5,100.5C 191.025,101.898 181.692,106.898 174.5,115.5C 172.284,116.203 170.451,117.536 169,119.5C 155.194,136.07 151.027,154.737 156.5,175.5C 157.172,179.188 158.005,182.855 159,186.5C 162.974,193.303 167.141,199.97 171.5,206.5C 171.253,209.082 169.92,209.915 167.5,209C 162.528,203.209 158.195,197.043 154.5,190.5C 151.649,183.989 149.649,177.322 148.5,170.5C 148.5,169.833 148.5,169.167 148.5,168.5C 148.418,161.142 148.752,153.809 149.5,146.5C 155.503,122.154 170.17,105.154 193.5,95.5C 214.026,90.0319 233.693,92.0319 252.5,101.5 Z"/></g>
<g><path style="opacity:1" fill="#52b5cd" d="M 283.5,143.5 C 284.449,145.737 285.116,148.071 285.5,150.5C 285.566,159.852 285.232,169.185 284.5,178.5C 283.414,178.62 282.747,179.287 282.5,180.5C 281.995,184.059 280.995,187.392 279.5,190.5C 276.02,196.779 272.02,202.779 267.5,208.5C 265.505,209.89 264.172,209.39 263.5,207C 264.589,204.084 266.256,201.584 268.5,199.5C 271.905,194.685 274.238,189.352 275.5,183.5C 276.117,183.389 276.617,183.056 277,182.5C 280.678,170.718 281.511,158.718 279.5,146.5C 279.729,144.567 280.562,142.9 282,141.5C 282.278,142.416 282.778,143.082 283.5,143.5 Z"/></g>

  <g transform="translate(0.000000,399.000000) scale(0.100000,-0.100000)"
fill="#000000" stroke="none">
<path d="M2155 3375 c-14 -13 -25 -33 -25 -45 0 -28 43 -70 73 -70 31 0 67 39
67 73 0 32 -35 67 -67 67 -13 0 -35 -11 -48 -25z m83 -23 c13 -17 7 -52 -12
-64 -29 -19 -76 5 -76 39 0 47 58 63 88 25z" fill="#27539a"/>
<path d="M1750 3375 c0 -8 7 -15 15 -15 8 0 15 7 15 15 0 8 -7 15 -15 15 -8 0
-15 -7 -15 -15z" fill="#27539a"/>
<path d="M2010 3371 c-14 -27 -5 -45 31 -58 34 -13 35 -38 1 -38 -28 -1 -39
-13 -18 -21 23 -9 63 3 70 21 9 23 -4 44 -35 61 -34 17 -38 34 -8 34 11 0 17
5 14 10 -10 17 -44 11 -55 -9z" fill="#27539a"/>
<path d="M2336 3379 c-15 -47 -26 -111 -21 -120 11 -16 25 1 25 30 0 16 8 39
19 52 16 20 21 22 36 9 16 -13 15 -51 -2 -96 -3 -8 1 -14 10 -14 11 0 18 14
22 44 10 65 4 80 -30 84 -17 2 -36 8 -42 14 -9 7 -14 6 -17 -3z" fill="#27539a"/>
<path d="M1880 3345 c-18 -21 -5 -44 30 -57 36 -12 38 -43 2 -42 -27 1 -23
-20 4 -24 11 -2 29 7 39 18 24 26 13 49 -33 69 -37 17 -37 32 -1 42 l24 7 -26
1 c-15 1 -32 -6 -39 -14z" fill="#27539a"/>
<path d="M1782 3312 c2 -4 12 -31 22 -60 11 -29 26 -52 34 -52 7 0 12 3 10 8
-2 4 -12 31 -23 60 -11 28 -26 52 -33 52 -8 0 -12 -4 -10 -8z" fill="#27539a"/>
<path d="M1641 3244 c-25 -32 -26 -38 -4 -74 34 -58 114 -40 121 28 7 66 -76
98 -117 46z m92 -15 c14 -23 1 -66 -22 -72 -44 -11 -80 50 -49 81 17 17 58 11
71 -9z" fill="#27539a"/>
<path d="M2785 3234 c-21 -40 -26 -41 -50 -14 -22 24 -67 26 -89 4 -35 -35
-11 -114 35 -114 10 0 19 -7 19 -15 0 -35 9 -25 113 135 14 22 15 29 4 33 -8
3 -21 -8 -32 -29z m-61 -30 c33 -32 13 -74 -36 -74 -38 0 -55 33 -33 66 18 28
46 31 69 8z" fill="#27539a"/>
<path d="M2465 3220 c-25 -27 -10 -39 16 -13 12 11 17 23 11 27 -5 3 -17 -3
-27 -14z" fill="#27539a"/>
<path d="M2874 3189 c-3 -6 -2 -15 2 -19 12 -12 38 5 30 19 -9 14 -23 14 -32
0z" fill="#27539a"/>
<path d="M1508 3154 c-7 -8 -21 -24 -31 -35 -21 -23 -20 -25 51 -106 55 -63
94 -78 49 -20 l-24 31 31 21 c43 29 47 75 10 104 -32 25 -68 27 -86 5z m57
-10 c28 -11 38 -54 19 -75 -21 -23 -42 -24 -66 -2 -22 20 -23 46 -2 67 17 18
24 19 49 10z" fill="#27539a"/>
<path d="M2800 3095 c-29 -29 -41 -48 -34 -55 6 -6 24 8 52 40 54 62 40 74
-18 15z" fill="#27539a"/>
<path d="M2930 3095 c-7 -8 -19 -15 -26 -15 -8 0 -14 -6 -14 -12 0 -7 -16 -26
-35 -41 -19 -15 -35 -32 -35 -37 0 -19 27 -9 55 20 16 17 35 29 43 28 8 -2 16
6 18 16 1 10 9 23 16 27 9 6 10 11 2 19 -8 8 -14 7 -24 -5z" fill="#27539a"/>
<path d="M1305 2990 c-3 -6 1 -13 9 -16 9 -3 16 -12 16 -20 0 -8 8 -14 18 -14
9 0 34 -11 54 -25 40 -27 48 -30 48 -16 0 5 -18 22 -40 38 -23 16 -38 34 -35
42 4 9 -1 12 -15 8 -11 -3 -23 -1 -26 4 -7 12 -21 11 -29 -1z" fill="#27539a"/>
<path d="M3005 2920 c-73 -44 -101 -70 -76 -70 5 0 26 10 46 22 39 22 38 23
65 -22 14 -25 22 -5 8 25 -11 24 -10 29 7 41 28 20 44 17 57 -11 6 -14 18 -25
26 -25 11 0 8 10 -11 42 -14 23 -29 43 -33 44 -5 1 -45 -19 -89 -46z" fill="#27539a"/>
<path d="M1232 2926 c1 -10 8 -17 13 -17 15 1 12 24 -3 29 -9 3 -13 -2 -10
-12z" fill="#27539a"/>
<path d="M1292 2888 c5 -14 86 -66 106 -67 27 -2 9 19 -43 48 -61 34 -69 37
-63 19z" fill="#27539a"/>
<path d="M1170 2831 c0 -5 18 -16 41 -25 l40 -16 -20 -27 c-12 -14 -21 -34
-21 -44 0 -30 36 -59 74 -59 40 0 66 22 66 55 0 13 5 27 10 30 21 13 7 23 -80
58 -94 39 -110 43 -110 28z m138 -67 c37 -26 24 -84 -19 -84 -43 0 -67 69 -31
89 23 14 24 14 50 -5z" fill="#27539a"/>
<path d="M2156 2818 c-2 -7 -9 -71 -15 -141 -40 -464 -231 -867 -560 -1180
-240 -228 -540 -352 -740 -306 -24 5 -46 7 -49 5 -7 -7 83 -266 122 -351 36
-78 82 -123 216 -212 181 -121 383 -202 835 -334 61 -17 133 -42 160 -53 49
-21 51 -22 87 -4 21 10 100 36 175 58 455 133 701 235 879 363 136 98 146 112
218 302 35 94 67 185 71 203 l7 33 -39 -8 c-21 -4 -74 -8 -118 -7 -384 4 -856
421 -1064 939 -78 194 -124 403 -135 605 -3 52 -5 96 -6 98 -1 9 -41 0 -44
-10z m24 -610 c0 -132 -1 -133 -39 -219 -83 -188 -186 -336 -340 -489 -198
-197 -424 -327 -653 -375 -80 -17 -273 -21 -263 -5 3 5 22 10 41 10 51 0 220
38 294 67 104 39 168 73 275 145 239 160 431 395 559 685 44 99 88 221 101
281 15 68 25 27 25 -100z m0 -454 c0 -41 -5 -85 -12 -97 -50 -94 -219 -274
-352 -374 -160 -119 -383 -218 -559 -249 -118 -21 -347 -11 -347 15 0 3 42 6
93 7 236 2 491 92 701 247 145 108 342 326 430 480 16 26 32 47 37 47 5 0 9
-34 9 -76z m0 -310 l0 -65 -57 -61 c-99 -104 -298 -229 -474 -298 -85 -34
-267 -77 -354 -85 -91 -8 -251 7 -310 29 -27 10 -34 15 -20 16 11 2 23 2 27 1
67 -9 182 -9 261 -1 299 33 611 205 857 473 29 31 57 57 61 57 5 0 9 -30 9
-66z m0 -259 c0 -50 -3 -56 -37 -84 -53 -44 -241 -134 -363 -174 -226 -75
-467 -103 -625 -74 -85 16 -195 53 -195 66 0 4 33 1 73 -7 107 -21 361 -21
465 2 218 46 400 134 607 289 33 25 63 43 67 41 5 -3 8 -29 8 -59z m0 -218 c0
-52 -1 -54 -37 -71 -349 -167 -847 -203 -1107 -80 -68 32 -73 47 -8 28 158
-49 394 -66 557 -41 181 28 354 88 495 171 41 24 81 44 88 45 8 1 12 -16 12
-52z m-2 -208 c-4 -55 -13 -60 -178 -93 -170 -34 -403 -50 -547 -36 -181 17
-356 70 -438 134 -28 21 -17 20 72 -10 319 -105 620 -94 993 34 47 16 89 26
93 22 5 -4 7 -27 5 -51z m-3 -190 l0 -54 -90 -12 c-199 -26 -492 -8 -653 39
-99 29 -101 41 -5 31 151 -15 428 -8 553 15 63 12 129 26 145 31 45 14 50 9
50 -50z m-160 -135 l160 -5 3 -41 c2 -22 1 -46 -1 -52 -4 -9 -71 4 -238 46
-129 32 -238 60 -244 63 -5 3 28 3 75 0 47 -4 157 -8 245 -11z" fill="#27539a"/>
<path d="M3083 2786 c-51 -22 -93 -46 -93 -53 0 -7 2 -13 4 -13 10 0 179 79
188 88 24 24 -14 16 -99 -22z" fill="#27539a"/>
<path d="M3046 2685 c-52 -53 -4 -137 68 -119 43 10 61 87 28 117 -23 21 -76
22 -96 2z m78 -27 c29 -42 -26 -87 -65 -52 -23 21 -24 37 -3 58 22 22 50 20
68 -6z" fill="#27539a"/>
<path d="M1095 2541 c-7 -12 12 -24 25 -16 11 7 4 25 -10 25 -5 0 -11 -4 -15
-9z" fill="#27539a"/>
<path d="M1165 2531 c-8 -14 3 -18 68 -25 64 -8 82 9 20 19 -21 3 -48 8 -60
11 -12 2 -24 0 -28 -5z" fill="#27539a"/>
<path d="M3065 2496 c-20 -30 -10 -75 19 -85 30 -11 106 -1 106 13 0 8 -18 12
-52 11 -44 0 -53 3 -56 19 -5 26 24 46 65 46 18 0 33 5 33 10 0 6 -22 10 -50
10 -41 0 -52 -4 -65 -24z" fill="#27539a"/>
<path d="M1157 2444 c-14 -14 6 -24 48 -24 33 0 47 -5 54 -18 15 -27 -5 -42
-55 -42 -24 0 -46 -4 -49 -10 -9 -15 98 -13 113 2 20 20 15 76 -7 88 -22 11
-94 14 -104 4z" fill="#27539a"/>
<path d="M3066 2353 c-10 -10 5 -23 25 -23 25 0 24 -8 -6 -32 -14 -11 -25 -26
-25 -34 0 -11 10 -7 36 13 l36 27 22 -27 c12 -15 25 -27 29 -27 13 0 7 21 -13
42 -11 12 -20 25 -20 28 0 3 27 4 60 2 75 -6 82 14 8 22 -105 11 -147 14 -152
9z" fill="#27539a"/>
<path d="M1260 2282 c0 -5 -25 -7 -55 -4 -50 4 -57 2 -85 -26 -25 -26 -30 -38
-30 -79 0 -41 5 -54 28 -77 58 -54 143 -41 176 28 20 43 20 54 -2 98 -13 24
-16 41 -10 52 7 12 5 16 -7 16 -8 0 -15 -4 -15 -8z m-37 -50 c-3 -22 11 -30
22 -12 11 18 23 11 34 -20 12 -35 7 -56 -22 -87 -26 -29 -96 -32 -120 -5 -26
29 -32 78 -13 107 31 47 103 60 99 17z"  fill="#27539a"/>
<path d="M3050 2196 c-6 -8 -13 -35 -15 -60 -3 -45 -2 -46 34 -56 66 -18 84
-17 87 5 2 11 6 35 10 53 9 45 -16 72 -66 72 -21 0 -43 -7 -50 -14z m88 -18
c19 -19 14 -56 -8 -68 -43 -23 -92 20 -70 60 12 23 59 27 78 8z"  fill="#27539a"/>
<path d="M1325 1776 c6 -30 4 -39 -16 -56 l-24 -19 32 -1 c28 0 35 -5 46 -32
l14 -33 7 33 c7 29 11 32 44 32 l37 1 -24 19 c-18 16 -22 26 -17 50 6 34 4 36
-28 15 -21 -14 -25 -14 -50 6 l-27 22 6 -37z"  fill="#27539a"/>
<path d="M2924 1778 c6 -32 3 -39 -21 -57 l-28 -20 37 -1 c32 0 39 -4 44 -25
3 -14 10 -25 15 -25 5 0 11 11 15 25 5 21 12 25 43 25 l36 0 -28 23 c-25 20
-27 25 -18 50 15 40 14 41 -16 19 -28 -20 -28 -20 -57 1 l-29 20 7 -35z"  fill="#27539a"/>
<path d="M788 1573 c-45 -77 -61 -209 -32 -264 30 -58 143 -89 260 -70 70 11
179 40 172 46 -1 1 -43 -2 -91 -8 -195 -24 -307 43 -307 186 0 30 5 68 11 85
15 43 7 59 -13 25z"  fill="#27539a"/>
<path d="M3546 1553 c55 -182 -50 -296 -261 -280 -44 4 -91 9 -105 12 l-25 6
27 -15 c39 -23 204 -49 263 -41 75 9 130 39 150 82 24 49 15 144 -21 224 -32
70 -48 78 -28 12z"  fill="#27539a"/>
</g>
</svg>
