<svg xmlns="http://www.w3.org/2000/svg" viewBox="0 0 749.18 242.97"><defs><style>.cls-1{fill:#e53946;}</style></defs><g id="Layer_2" data-name="Layer 2"><g id="Layer_1-2" data-name="Layer 1"><path class="cls-1" d="M614.71,25.52C597.81-1.37,564-8.29,540.18,10.92c-4.61,4.61-9.22,9.22-13.06,14.6l-40,63h0l-46.1,73.76c-12.3,20.75-32.28,31.51-53.79,31.51h-23c-20.75,0-42.26-11.53-53.79-31.51L263.56,88.53h0l-40-63c-16.9-26.89-50.71-33.81-74.53-14.6-4.61,4.61-9.22,9.22-13.06,14.6L0,240.67H110.65c36.11,0,69.15-19.21,89.9-52.25l36.11-57.63,36.89,59.93c20.74,33.05,53.78,52.25,89.9,52.25H386.5c36.11,0,69.16-19.2,89.9-52.25l36.88-59.93,36.12,57.63c20.75,33,53.79,52.25,89.13,52.25H749.18ZM165.2,160.76c-13.06,19.21-33,30.73-53.78,30.73H84.52L171.35,53.18c2.31-3.07,4.61-5.38,7.68-4.61,3.08,0,6.92,2.31,7.69,4.61L209,88.53Zm419.55,0L541,88.53l22.28-35.35a13,13,0,0,1,7.68-5.38c3.08,0,6.92,2.31,9.22,4.61L667,190.72H640.07c-23.05.77-43-11.52-55.32-30Z"/><path class="cls-1" d="M341.17,117.73h0c-3.85,4.61-10,4.61-13.07,0h0l-33-37.65c-3.07-4.61-3.07-11.53,0-14.6h0c3.84-3.08,10-3.08,13.06,0l33.05,37.65c3.07,3.84,3.07,10.76,0,14.6Z"/><path class="cls-1" d="M307.36,80.84l33-37.65c3.84-4.61,3.84-11.52,0-14.6-3.84-4.61-10-4.61-13.07,0l-33,37.65c-3.07,4.62-3.07,11.53,0,14.6l13.07,14.6c-.77-.76-2.31-4.61-2.31-6.91C305.05,85.45,306.59,83.15,307.36,80.84Z"/><path class="cls-1" d="M411.09,28.59h0c3.84-4.61,10-4.61,13.06,0h0l33,37.65c3.84,4.62,3.84,11.53,0,14.6h0c-3.84,4.61-10,4.61-13.06,0h0l-33-37.65c-3.07-4.61-3.07-10.75,0-14.6Z"/><path class="cls-1" d="M458,66.24,444.9,51.65A9.87,9.87,0,0,1,448,59.33,11,11,0,0,1,444.9,67h0l-33,37.65c-3.84,4.61-3.84,11.53,0,14.6s10,4.61,13.06,0l33-37.65C461,76.23,461,69.32,458,66.24Z"/><path class="cls-1" d="M385,73.93c0,6.91-3.84,11.52-10,11.52s-10-4.61-10-11.52,3.84-11.53,10-11.53S385,68.55,385,73.93Z"/><path class="cls-1" d="M351.15,73.93c0,6.91-3.84,11.52-10,11.52s-10-4.61-10-11.52,3.84-11.53,10-11.53S351.15,68.55,351.15,73.93Z"/><path class="cls-1" d="M418.77,73.93c0,6.91-3.84,11.52-10,11.52s-10-4.61-10-11.52,3.85-11.53,10-11.53S418.77,68.55,418.77,73.93Z"/></g></g></svg>