<svg version="1.1" id="Layer_1" xmlns="http://www.w3.org/2000/svg" x="0" y="0" viewBox="0 0 1030 233" style="enable-background:new 0 0 1030 233" xml:space="preserve"><style>.st0{fill:#004c83}</style><g id="_x23_004c83ff"><path class="st0" d="M374 0h42v233h-42V0zM0 2.8c18.1 0 36.2-.1 54.3 0L54 7.3c-5.1.1-10.9 1-14.4 5.2-2 2.3-2.3 5.5-2.3 8.4.1 20.4 0 40.7.1 61.1.7 9.5 3.8 19.2 10.2 26.4 12.3 12.8 37.1 11.2 46.4-4.5 5.6-8.9 7.5-19.6 6.9-30 .1-17.3.1-34.7.1-52.1.2-4.7-1.7-9.6-5.7-12.3-3.5-2.3-7.9-2.2-11.9-2.1V2.9c12.5-.6 25-.1 37.6-.3 5.2.1 10.5-.2 15.7.2 0 1.5-.1 3-.1 4.5-4.4 0-9.3.2-12.9 3.3-3 2.4-4.1 6.5-4 10.2v56.1c-.5 13.3-4.5 27-13.8 36.8C98.2 122 87 125.9 76 126c-12.5 1.2-26 1.1-36.9-6.1-13.4-8.4-19.6-24.3-20.6-39.5-.9-19.5-.7-39-.4-58.5-.1-4.4-1.2-9.4-5-12.1C9.3 7.4 4.4 7.6 0 7.2V2.8zm210-.2c24.3-.1 48.7 0 73-.1 12.9.1 26.1 6.2 33.1 17.4 9.3 14.4 9.8 32.4 8.6 49-21.2-.3-42.7-.3-63.2 5.7-11.1 3.3-22.5 8.8-29 18.8-3.7 5.5-4.8 12.3-4.1 18.8-6.1 0-12.3.1-18.4 0 0-13.4 3.1-27.2 11.3-38 7.8-10.5 19.8-17.7 32.5-20.6 19.8-4.6 40.1-6.4 60.4-7.2-1.5-6.9-5.8-13.1-11.8-16.8-6.6-4.1-14.6-5.8-22.3-5.7-18 .2-36 0-54.1.1-3.6 0-7.4 1.3-9.6 4.3-3.7 4.6-3.7 10.8-3.6 16.5h-2.7c-.3-14-.1-28.1-.1-42.2z"/><path class="st0" d="M239.4 93.9c5.7-7.8 15.7-11.2 25-11.2-3.8 6-8.7 11.4-11.5 18-4.5-2.1-9.1-4.3-13.5-6.8z"/></g><path d="M146 3h18v226h-18V3zm28 0h18v226h-18V3zM19.1 104.9c2.9 5.3 5.5 10.9 9.9 15.1 2 2.3 5 3.7 6.8 6.2.5 2.6.4 5.2.5 7.8.2 25.7-.3 51.3-.4 77 0 4.9 1.8 10.2 5.9 13.2 3.5 2.5 7.9 2.4 11.9 3v2.4c-17.5-.1-35-.1-52.5 0-.1-.6-.2-1.9-.2-2.6 5.3-.2 11.3-.8 14.8-5.2 3.9-4.7 2.8-11.1 2.9-16.8.2-33.4-.1-66.7.4-100.1zm91.1 13.2c3.5-3.9 5.4-8.9 8.4-13.2-.1 35.4.1 70.7.1 106.1-.1 4.3.8 9.1 4.2 12.1 3.7 3.5 9.1 3.5 13.8 4.1v2.4c-17.5 0-35-.1-52.5.1-.1-.7-.2-2-.3-2.7 3.9-.3 8.2-.3 11.6-2.6 4.1-2.7 6-7.7 6.1-12.4.1-27-.7-54-.3-81.1.2-1.7-.2-3.6.7-5.1 2.6-2.6 5.8-4.7 8.2-7.7zm99.6 1.9c24.1-.1 48.2 0 72.2-.1 12.4-.1 25.2 5.2 32.5 15.5 10.4 14.6 11.5 33.6 9.6 50.9-22.5-.6-45.5-.3-67 6.9-10.6 3.7-21.4 9.9-26.5 20.4-2.7 4.9-2.6 10.6-2.8 16.1-6-.1-12-.1-18 0-.6-14.5 3.6-29.5 13.1-40.7 7.6-8.8 18.1-15 29.4-17.7 20.2-4.8 41-6.6 61.6-7.6-1.9-7-6.2-13.5-12.7-17.1-7.9-4.7-17.4-5.7-26.4-5.2-16.3.1-32.7 0-49 0-3.6 0-7.3 1.1-9.7 4-3.8 4.6-4 10.8-3.7 16.5-.7 0-2.1.2-2.9.2 0-14.1.1-28.1.3-42.1zM44 163h49v9H44v-9z" style="fill:#818284" id="_x23_818284ff"/><path class="st0" d="M456 1v230h574V1H456zm97.4 176.4c-.1 1.1-.4 2.1-.7 2.8-.3.7-.7 1.2-1.1 1.5-.4.3-.9.5-1.5.5H493c-1.9 0-3.6-.6-4.9-1.7s-2-3-2-5.6V75.8c0-2.6.7-4.4 2-5.6s2.9-1.7 4.9-1.7h56.8c.5 0 1 .1 1.4.4.4.3.8.8 1.1 1.5.3.7.5 1.7.7 2.8.1 1.1.2 2.6.2 4.4 0 1.6-.1 3-.2 4.2-.1 1.1-.4 2.1-.7 2.8-.3.7-.6 1.2-1.1 1.5-.4.3-.9.5-1.4.5h-40.6v27.8h34.4c.5 0 1 .2 1.5.5.4.3.8.8 1.1 1.5.3.7.5 1.6.7 2.7.1 1.1.2 2.5.2 4.2 0 1.7-.1 3.1-.2 4.2s-.4 2-.7 2.7c-.3.7-.7 1.2-1.1 1.5-.4.3-.9.4-1.5.4h-34.4v32.1h41c.5 0 1 .2 1.5.5.4.3.8.8 1.1 1.5.3.7.5 1.6.7 2.8.1 1.1.2 2.6.2 4.3-.1 1.6-.1 3-.3 4.1zm132.4-3.3c0 1.3-.2 2.5-.7 3.6-.5 1.1-1.1 1.9-1.9 2.6s-1.7 1.2-2.8 1.5c-1.1.3-2.2.5-3.3.5h-9.8c-2.1 0-3.8-.2-5.3-.6-1.5-.4-2.9-1.2-4.1-2.2-1.3-1.1-2.5-2.5-3.6-4.4-1.2-1.8-2.5-4.2-4-7.2L622 114.7c-1.6-3.2-3.3-6.6-5-10.2-1.7-3.7-3.2-7.2-4.6-10.7h-.2c.2 4.2.4 8.4.5 12.6.1 4.2.2 8.5.2 13V179c0 .6-.2 1.1-.5 1.6s-.9.9-1.7 1.2c-.8.3-1.9.6-3.2.7-1.3.2-3.1.3-5.2.3s-3.8-.1-5.1-.3c-1.3-.2-2.4-.4-3.2-.7-.8-.3-1.3-.7-1.6-1.2-.3-.5-.4-1-.4-1.6V76.7c0-2.8.8-4.8 2.4-6.2 1.6-1.4 3.6-2.1 5.9-2.1h12.4c2.2 0 4.1.2 5.6.6 1.5.4 2.9 1 4.1 1.9 1.2.9 2.3 2.1 3.4 3.6 1.1 1.6 2.1 3.5 3.3 5.8l22.1 41.6c1.3 2.5 2.6 5 3.8 7.4 1.3 2.4 2.5 4.9 3.6 7.3 1.2 2.4 2.3 4.8 3.4 7.2 1.1 2.3 2.2 4.7 3.3 7h.1c-.2-4.1-.3-8.4-.4-12.8-.1-4.5-.1-8.7-.1-12.7V71.9c0-.6.2-1.1.5-1.6.4-.5.9-.9 1.8-1.2.8-.4 1.9-.6 3.3-.7 1.3-.1 3.1-.2 5.2-.2 2 0 3.7.1 5 .2 1.3.1 2.4.4 3.1.7.7.4 1.2.8 1.5 1.2.3.5.4 1 .4 1.6v102.2zm106.9-10.3c-2.2 4.5-5.2 8.3-9.1 11.3-3.8 3-8.3 5.3-13.4 6.8s-10.5 2.3-16.3 2.3c-3.9 0-7.6-.3-10.9-1-3.4-.6-6.3-1.4-8.9-2.3-2.6-.9-4.7-1.9-6.5-2.9-1.7-1-3-1.9-3.7-2.6-.8-.8-1.3-1.9-1.6-3.3-.3-1.4-.5-3.5-.5-6.2 0-1.8.1-3.3.2-4.6.1-1.2.3-2.2.6-3 .3-.8.6-1.3 1.1-1.6.4-.3 1-.5 1.5-.5.8 0 2 .5 3.5 1.5s3.4 2 5.8 3.2c2.3 1.2 5.1 2.2 8.4 3.2s7 1.5 11.3 1.5c2.8 0 5.3-.3 7.6-1 2.2-.7 4.1-1.6 5.7-2.9 1.6-1.2 2.7-2.8 3.6-4.6.8-1.8 1.2-3.8 1.2-6.1 0-2.6-.7-4.8-2.1-6.6s-3.2-3.5-5.5-4.9c-2.3-1.4-4.8-2.8-7.7-4-2.9-1.3-5.8-2.6-8.9-4-3-1.4-6-3-8.9-4.8-2.9-1.8-5.4-3.9-7.7-6.4-2.3-2.5-4.1-5.4-5.5-8.8-1.4-3.4-2.1-7.5-2.1-12.2 0-5.4 1-10.2 3-14.4s4.7-7.6 8.2-10.3 7.5-4.8 12.1-6.1c4.7-1.3 9.6-2 14.8-2 2.7 0 5.4.2 8.1.6 2.7.4 5.2 1 7.6 1.7 2.3.7 4.4 1.5 6.2 2.4 1.8.9 3 1.6 3.6 2.2.6.6 1 1.1 1.2 1.5.2.4.4 1 .5 1.6.1.7.2 1.5.3 2.5.1 1 .1 2.3.1 3.8 0 1.7 0 3.1-.1 4.3-.1 1.2-.2 2.1-.4 2.9-.2.8-.5 1.3-.9 1.7-.4.4-.9.5-1.5.5s-1.7-.4-3.1-1.2c-1.4-.8-3.1-1.7-5.2-2.7-2.1-1-4.4-1.8-7.1-2.6-2.7-.8-5.7-1.2-8.9-1.2-2.5 0-4.7.3-6.6.9-1.9.6-3.4 1.5-4.7 2.5a9.73 9.73 0 0 0-2.8 3.9c-.6 1.5-.9 3.1-.9 4.8 0 2.5.7 4.7 2.1 6.5 1.4 1.8 3.2 3.5 5.5 4.9 2.3 1.4 4.9 2.8 7.9 4 2.9 1.3 5.9 2.6 9 4 3 1.4 6 3 9 4.8 2.9 1.8 5.5 3.9 7.8 6.4 2.3 2.5 4.1 5.4 5.5 8.8 1.4 3.4 2.1 7.3 2.1 11.9-.3 6.2-1.4 11.4-3.6 15.9zm106.2 13.6c-.1 1.1-.4 2.1-.7 2.8-.3.7-.7 1.2-1.1 1.5-.4.3-.9.5-1.5.5h-57.1c-1.9 0-3.6-.6-4.9-1.7s-2-3-2-5.6V75.8c0-2.6.7-4.4 2-5.6s2.9-1.7 4.9-1.7h56.8c.5 0 1 .1 1.4.4.4.3.8.8 1.1 1.5.3.7.5 1.7.7 2.8.1 1.1.2 2.6.2 4.4 0 1.6-.1 3-.2 4.2-.1 1.1-.4 2.1-.7 2.8-.3.7-.6 1.2-1.1 1.5-.4.3-.9.5-1.4.5h-40.6v27.8h34.4c.5 0 1 .2 1.5.5.4.3.8.8 1.1 1.5.3.7.5 1.6.7 2.7.1 1.1.2 2.5.2 4.2 0 1.7-.1 3.1-.2 4.2s-.4 2-.7 2.7c-.3.7-.7 1.2-1.1 1.5-.4.3-.9.4-1.5.4h-34.4v32.1h41c.5 0 1 .2 1.5.5.4.3.8.8 1.1 1.5.3.7.5 1.6.7 2.8.1 1.1.2 2.6.2 4.3-.1 1.6-.2 3-.3 4.1zm114-95.1c-.1 1.2-.4 2.2-.7 2.9-.3.7-.7 1.3-1.1 1.6s-.9.5-1.5.5h-28.5V179c0 .6-.2 1.1-.6 1.6-.4.5-1 .8-1.9 1.1-.9.3-2.1.5-3.6.7s-3.4.3-5.6.3c-2.2 0-4.1-.1-5.6-.3s-2.7-.4-3.6-.7c-.9-.3-1.5-.7-1.9-1.1-.4-.5-.6-1-.6-1.6V87.4h-28.5c-.6 0-1.1-.2-1.5-.5a5 5 0 0 1-1.1-1.6c-.3-.7-.5-1.7-.7-2.9-.1-1.2-.2-2.7-.2-4.4 0-1.8.1-3.3.2-4.5.1-1.2.4-2.2.7-2.9.3-.7.6-1.3 1.1-1.6.4-.3.9-.5 1.5-.5h80.2c.5 0 1 .2 1.5.5.4.3.8.9 1.1 1.6.3.7.5 1.7.7 2.9.1 1.2.2 2.7.2 4.5.3 1.7.2 3.1 0 4.3z"/></svg>