<svg viewBox="0 0 430 400" xmlns="http://www.w3.org/2000/svg"><path style="opacity:1" fill="#4fb4cd" d="M289.5 44.5c2.475 2.741 5.475 4.741 9 6a281.73 281.73 0 0 0 21 19l15 20c8.032 13.763 13.698 28.43 17 44a284.64 284.64 0 0 1 2 41 415.842 415.842 0 0 1-7 32c-1.238 1.714-1.905 3.714-2 6a377.219 377.219 0 0 1-18 32 16.635 16.635 0 0 0-5 6 31.447 31.447 0 0 0-5 4.5 8.43 8.43 0 0 1-4 .5 8.43 8.43 0 0 1 .5-4c2.985-2.662 5.485-5.662 7.5-9 8.959-11.578 16.126-24.245 21.5-38a12.93 12.93 0 0 0 .5-5c8.569-23.77 9.235-47.77 2-72-1.329-7.634-3.996-14.634-8-21-1.654-5.646-4.154-10.98-7.5-16a608.135 608.135 0 0 0-18.5-22 85.548 85.548 0 0 0-12-10c-19.989-16.18-42.989-25.68-69-28.5-22.737-1.655-44.737 1.678-66 10-4.387 2.051-8.387 4.551-12 7.5a61.838 61.838 0 0 0-9 4.5 106.891 106.891 0 0 0-15 13.5c-7.478 6.468-13.811 13.801-19 22-3.307 3.926-6.14 8.26-8.5 13a39.37 39.37 0 0 0-4.5 11c-3.89 8.88-6.557 18.213-8 28-1.5 6.77-2.167 13.77-2 21 0 4.846.334 9.512 1 14a160.95 160.95 0 0 0 8 35.5c.336 1.03 1.003 1.53 2 1.5a99.879 99.879 0 0 0 4.5 13 33.401 33.401 0 0 1 6.5 10 49.923 49.923 0 0 1 7.5 11 47.825 47.825 0 0 1 9.5 9v3a12.93 12.93 0 0 1-5-.5 451.518 451.518 0 0 1-17-19.5 137.301 137.301 0 0 0-10.5-18c-.905-4.337-2.405-8.337-4.5-12a129.694 129.694 0 0 1-6-29 577.516 577.516 0 0 1 1-42 185.445 185.445 0 0 1 9-33 284.99 284.99 0 0 1 21-33 102.04 102.04 0 0 0 12-12c15.467-12.74 32.8-22.407 52-29 39.827-10.48 77.494-5.48 113 15Z"/><path style="opacity:1" fill="#52b6d1" d="M252.5 101.5c11.812 7.478 20.812 17.478 27 30-1.902 2.837-2.569 6.171-2 10-1.276-2.062-2.11-4.396-2.5-7-1.699-3.421-3.865-6.421-6.5-9-1.906-4.908-5.239-8.575-10-11-6.331-6.509-13.997-11.009-23-13.5a96.298 96.298 0 0 0-31-2c-.916.278-1.582.778-2 1.5-11.475 1.398-20.808 6.398-28 15-2.216.703-4.049 2.036-5.5 4-13.806 16.57-17.973 35.237-12.5 56a130.775 130.775 0 0 0 2.5 11 393.613 393.613 0 0 0 12.5 20c-.247 2.582-1.58 3.415-4 2.5a115.64 115.64 0 0 1-13-18.5c-2.851-6.511-4.851-13.178-6-20v-2a194.614 194.614 0 0 1 1-22c6.003-24.346 20.67-41.346 44-51 20.526-5.468 40.193-3.468 59 6Z"/><path style="opacity:1" fill="#52b5cd" d="M283.5 143.5a29.753 29.753 0 0 1 2 7 327.72 327.72 0 0 1-1 28c-1.086.12-1.753.787-2 2-.505 3.559-1.505 6.892-3 10a133 133 0 0 1-12 18c-1.995 1.39-3.328.89-4-1.5 1.089-2.916 2.756-5.416 5-7.5 3.405-4.815 5.738-10.148 7-16 .617-.111 1.117-.444 1.5-1 3.678-11.782 4.511-23.782 2.5-36 .229-1.933 1.062-3.6 2.5-5 .278.916.778 1.582 1.5 2Z"/><g fill="#27539a"><path d="M215.5 61.5c-1.4 1.3-2.5 3.3-2.5 4.5 0 2.8 4.3 7 7.3 7 3.1 0 6.7-3.9 6.7-7.3 0-3.2-3.5-6.7-6.7-6.7-1.3 0-3.5 1.1-4.8 2.5zm8.3 2.3c1.3 1.7.7 5.2-1.2 6.4-2.9 1.9-7.6-.5-7.6-3.9 0-4.7 5.8-6.3 8.8-2.5zM175 61.5c0 .8.7 1.5 1.5 1.5s1.5-.7 1.5-1.5-.7-1.5-1.5-1.5-1.5.7-1.5 1.5zm26 .4c-1.4 2.7-.5 4.5 3.1 5.8 3.4 1.3 3.5 3.8.1 3.8-2.8.1-3.9 1.3-1.8 2.1 2.3.9 6.3-.3 7-2.1.9-2.3-.4-4.4-3.5-6.1-3.4-1.7-3.8-3.4-.8-3.4 1.1 0 1.7-.5 1.4-1-1-1.7-4.4-1.1-5.5.9zm32.6-.8c-1.5 4.7-2.6 11.1-2.1 12 1.1 1.6 2.5-.1 2.5-3 0-1.6.8-3.9 1.9-5.2 1.6-2 2.1-2.2 3.6-.9 1.6 1.3 1.5 5.1-.2 9.6-.3.8.1 1.4 1 1.4 1.1 0 1.8-1.4 2.2-4.4 1-6.5.4-8-3-8.4-1.7-.2-3.6-.8-4.2-1.4-.9-.7-1.4-.6-1.7.3zM188 64.5c-1.8 2.1-.5 4.4 3 5.7 3.6 1.2 3.8 4.3.2 4.2-2.7-.1-2.3 2 .4 2.4 1.1.2 2.9-.7 3.9-1.8 2.4-2.6 1.3-4.9-3.3-6.9-3.7-1.7-3.7-3.2-.1-4.2l2.4-.7-2.6-.1c-1.5-.1-3.2.6-3.9 1.4zm-9.8 3.3c.2.4 1.2 3.1 2.2 6 1.1 2.9 2.6 5.2 3.4 5.2.7 0 1.2-.3 1-.8-.2-.4-1.2-3.1-2.3-6-1.1-2.8-2.6-5.2-3.3-5.2-.8 0-1.2.4-1 .8zm-14.1 6.8c-2.5 3.2-2.6 3.8-.4 7.4 3.4 5.8 11.4 4 12.1-2.8.7-6.6-7.6-9.8-11.7-4.6zm9.2 1.5c1.4 2.3.1 6.6-2.2 7.2-4.4 1.1-8-5-4.9-8.1 1.7-1.7 5.8-1.1 7.1.9zm105.2-.5c-2.1 4-2.6 4.1-5 1.4-2.2-2.4-6.7-2.6-8.9-.4-3.5 3.5-1.1 11.4 3.5 11.4 1 0 1.9.7 1.9 1.5 0 3.5.9 2.5 11.3-13.5 1.4-2.2 1.5-2.9.4-3.3-.8-.3-2.1.8-3.2 2.9zm-6.1 3c3.3 3.2 1.3 7.4-3.6 7.4-3.8 0-5.5-3.3-3.3-6.6 1.8-2.8 4.6-3.1 6.9-.8zM246.5 77c-2.5 2.7-1 3.9 1.6 1.3 1.2-1.1 1.7-2.3 1.1-2.7-.5-.3-1.7.3-2.7 1.4zm40.9 3.1c-.3.6-.2 1.5.2 1.9 1.2 1.2 3.8-.5 3-1.9-.9-1.4-2.3-1.4-3.2 0zm-136.6 3.5c-.7.8-2.1 2.4-3.1 3.5-2.1 2.3-2 2.5 5.1 10.6 5.5 6.3 9.4 7.8 4.9 2l-2.4-3.1 3.1-2.1c4.3-2.9 4.7-7.5 1-10.4-3.2-2.5-6.8-2.7-8.6-.5zm5.7 1c2.8 1.1 3.8 5.4 1.9 7.5-2.1 2.3-4.2 2.4-6.6.2-2.2-2-2.3-4.6-.2-6.7 1.7-1.8 2.4-1.9 4.9-1zM280 89.5c-2.9 2.9-4.1 4.8-3.4 5.5.6.6 2.4-.8 5.2-4 5.4-6.2 4-7.4-1.8-1.5zm13 0c-.7.8-1.9 1.5-2.6 1.5-.8 0-1.4.6-1.4 1.2 0 .7-1.6 2.6-3.5 4.1s-3.5 3.2-3.5 3.7c0 1.9 2.7.9 5.5-2 1.6-1.7 3.5-2.9 4.3-2.8.8.2 1.6-.6 1.8-1.6.1-1 .9-2.3 1.6-2.7.9-.6 1-1.1.2-1.9s-1.4-.7-2.4.5zM130.5 100c-.3.6.1 1.3.9 1.6.9.3 1.6 1.2 1.6 2s.8 1.4 1.8 1.4c.9 0 3.4 1.1 5.4 2.5 4 2.7 4.8 3 4.8 1.6 0-.5-1.8-2.2-4-3.8-2.3-1.6-3.8-3.4-3.5-4.2.4-.9-.1-1.2-1.5-.8-1.1.3-2.3.1-2.6-.4-.7-1.2-2.1-1.1-2.9.1zm170 7c-7.3 4.4-10.1 7-7.6 7 .5 0 2.6-1 4.6-2.2 3.9-2.2 3.8-2.3 6.5 2.2 1.4 2.5 2.2.5.8-2.5-1.1-2.4-1-2.9.7-4.1 2.8-2 4.4-1.7 5.7 1.1.6 1.4 1.8 2.5 2.6 2.5 1.1 0 .8-1-1.1-4.2-1.4-2.3-2.9-4.3-3.3-4.4-.5-.1-4.5 1.9-8.9 4.6zm-177.3-.6c.1 1 .8 1.7 1.3 1.7 1.5-.1 1.2-2.4-.3-2.9-.9-.3-1.3.2-1 1.2zm6 3.8c.5 1.4 8.6 6.6 10.6 6.7 2.7.2.9-1.9-4.3-4.8-6.1-3.4-6.9-3.7-6.3-1.9zm-12.2 5.7c0 .5 1.8 1.6 4.1 2.5l4 1.6-2 2.7c-1.2 1.4-2.1 3.4-2.1 4.4 0 3 3.6 5.9 7.4 5.9 4 0 6.6-2.2 6.6-5.5 0-1.3.5-2.7 1-3 2.1-1.3.7-2.3-8-5.8-9.4-3.9-11-4.3-11-2.8zm13.8 6.7c3.7 2.6 2.4 8.4-1.9 8.4s-6.7-6.9-3.1-8.9c2.3-1.4 2.4-1.4 5 .5zm84.8-5.4c-.2.7-.9 7.1-1.5 14.1-4 46.4-23.1 86.7-56 118-24 22.8-54 35.2-74 30.6-2.4-.5-4.6-.7-4.9-.5-.7.7 8.3 26.6 12.2 35.1 3.6 7.8 8.2 12.3 21.6 21.2 18.1 12.1 38.3 20.2 83.5 33.4 6.1 1.7 13.3 4.2 16 5.3 4.9 2.1 5.1 2.2 8.7.4 2.1-1 10-3.6 17.5-5.8 45.5-13.3 70.1-23.5 87.9-36.3 13.6-9.8 14.6-11.2 21.8-30.2 3.5-9.4 6.7-18.5 7.1-20.3l.7-3.3-3.9.8c-2.1.4-7.4.8-11.8.7-38.4-.4-85.6-42.1-106.4-93.9-7.8-19.4-12.4-40.3-13.5-60.5-.3-5.2-.5-9.6-.6-9.8-.1-.9-4.1 0-4.4 1zm2.4 61c0 13.2-.1 13.3-3.9 21.9-8.3 18.8-18.6 33.6-34 48.9-19.8 19.7-42.4 32.7-65.3 37.5-8 1.7-27.3 2.1-26.3.5.3-.5 2.2-1 4.1-1 5.1 0 22-3.8 29.4-6.7 10.4-3.9 16.8-7.3 27.5-14.5 23.9-16 43.1-39.5 55.9-68.5 4.4-9.9 8.8-22.1 10.1-28.1 1.5-6.8 2.5-2.7 2.5 10zm0 45.4c0 4.1-.5 8.5-1.2 9.7-5 9.4-21.9 27.4-35.2 37.4-16 11.9-38.3 21.8-55.9 24.9-11.8 2.1-34.7 1.1-34.7-1.5 0-.3 4.2-.6 9.3-.7 23.6-.2 49.1-9.2 70.1-24.7 14.5-10.8 34.2-32.6 43-48 1.6-2.6 3.2-4.7 3.7-4.7s.9 3.4.9 7.6zm0 31v6.5l-5.7 6.1c-9.9 10.4-29.8 22.9-47.4 29.8-8.5 3.4-26.7 7.7-35.4 8.5-9.1.8-25.1-.7-31-2.9-2.7-1-3.4-1.5-2-1.6 1.1-.2 2.3-.2 2.7-.1 6.7.9 18.2.9 26.1.1 29.9-3.3 61.1-20.5 85.7-47.3 2.9-3.1 5.7-5.7 6.1-5.7.5 0 .9 3 .9 6.6zm0 25.9c0 5-.3 5.6-3.7 8.4-5.3 4.4-24.1 13.4-36.3 17.4-22.6 7.5-46.7 10.3-62.5 7.4-8.5-1.6-19.5-5.3-19.5-6.6 0-.4 3.3-.1 7.3.7 10.7 2.1 36.1 2.1 46.5-.2 21.8-4.6 40-13.4 60.7-28.9 3.3-2.5 6.3-4.3 6.7-4.1.5.3.8 2.9.8 5.9zm0 21.8c0 5.2-.1 5.4-3.7 7.1-34.9 16.7-84.7 20.3-110.7 8-6.8-3.2-7.3-4.7-.8-2.8 15.8 4.9 39.4 6.6 55.7 4.1 18.1-2.8 35.4-8.8 49.5-17.1 4.1-2.4 8.1-4.4 8.8-4.5.8-.1 1.2 1.6 1.2 5.2zm-.2 20.8c-.4 5.5-1.3 6-17.8 9.3-17 3.4-40.3 5-54.7 3.6-18.1-1.7-35.6-7-43.8-13.4-2.8-2.1-1.7-2 7.2 1 31.9 10.5 62 9.4 99.3-3.4 4.7-1.6 8.9-2.6 9.3-2.2.5.4.7 2.7.5 5.1zm-.3 19v5.4l-9 1.2c-19.9 2.6-49.2.8-65.3-3.9-9.9-2.9-10.1-4.1-.5-3.1 15.1 1.5 42.8.8 55.3-1.5 6.3-1.2 12.9-2.6 14.5-3.1 4.5-1.4 5-.9 5 5zm-16 13.5 16 .5.3 4.1c.2 2.2.1 4.6-.1 5.2-.4.9-7.1-.4-23.8-4.6-12.9-3.2-23.8-6-24.4-6.3-.5-.3 2.8-.3 7.5 0 4.7.4 15.7.8 24.5 1.1zm106.8-235.2c-5.1 2.2-9.3 4.6-9.3 5.3s.2 1.3.4 1.3c1 0 17.9-7.9 18.8-8.8 2.4-2.4-1.4-1.6-9.9 2.2zm-3.7 10.1c-5.2 5.3-.4 13.7 6.8 11.9 4.3-1 6.1-8.7 2.8-11.7-2.3-2.1-7.6-2.2-9.6-.2zm7.8 2.7c2.9 4.2-2.6 8.7-6.5 5.2-2.3-2.1-2.4-3.7-.3-5.8 2.2-2.2 5-2 6.8.6zm-202.9 11.7c-.7 1.2 1.2 2.4 2.5 1.6 1.1-.7.4-2.5-1-2.5-.5 0-1.1.4-1.5.9zm7 1c-.8 1.4.3 1.8 6.8 2.5 6.4.8 8.2-.9 2-1.9-2.1-.3-4.8-.8-6-1.1-1.2-.2-2.4 0-2.8.5zm190 3.5c-2 3-1 7.5 1.9 8.5 3 1.1 10.6.1 10.6-1.3 0-.8-1.8-1.2-5.2-1.1-4.4 0-5.3-.3-5.6-1.9-.5-2.6 2.4-4.6 6.5-4.6 1.8 0 3.3-.5 3.3-1 0-.6-2.2-1-5-1-4.1 0-5.2.4-6.5 2.4zm-190.8 5.2c-1.4 1.4.6 2.4 4.8 2.4 3.3 0 4.7.5 5.4 1.8 1.5 2.7-.5 4.2-5.5 4.2-2.4 0-4.6.4-4.9 1-.9 1.5 9.8 1.3 11.3-.2 2-2 1.5-7.6-.7-8.8-2.2-1.1-9.4-1.4-10.4-.4zm190.9 9.1c-1 1 .5 2.3 2.5 2.3 2.5 0 2.4.8-.6 3.2-1.4 1.1-2.5 2.6-2.5 3.4 0 1.1 1 .7 3.6-1.3l3.6-2.7 2.2 2.7c1.2 1.5 2.5 2.7 2.9 2.7 1.3 0 .7-2.1-1.3-4.2-1.1-1.2-2-2.5-2-2.8s2.7-.4 6-.2c7.5.6 8.2-1.4.8-2.2-10.5-1.1-14.7-1.4-15.2-.9zM126 170.8c0 .5-2.5.7-5.5.4-5-.4-5.7-.2-8.5 2.6-2.5 2.6-3 3.8-3 7.9s.5 5.4 2.8 7.7c5.8 5.4 14.3 4.1 17.6-2.8 2-4.3 2-5.4-.2-9.8-1.3-2.4-1.6-4.1-1-5.2.7-1.2.5-1.6-.7-1.6-.8 0-1.5.4-1.5.8zm-3.7 5c-.3 2.2 1.1 3 2.2 1.2s2.3-1.1 3.4 2c1.2 3.5.7 5.6-2.2 8.7-2.6 2.9-9.6 3.2-12 .5-2.6-2.9-3.2-7.8-1.3-10.7 3.1-4.7 10.3-6 9.9-1.7zm182.7 3.6c-.6.8-1.3 3.5-1.5 6-.3 4.5-.2 4.6 3.4 5.6 6.6 1.8 8.4 1.7 8.7-.5.2-1.1.6-3.5 1-5.3.9-4.5-1.6-7.2-6.6-7.2-2.1 0-4.3.7-5 1.4zm8.8 1.8c1.9 1.9 1.4 5.6-.8 6.8-4.3 2.3-9.2-2-7-6 1.2-2.3 5.9-2.7 7.8-.8z"/><path d="M132.5 221.4c.6 3 .4 3.9-1.6 5.6l-2.4 1.9 3.2.1c2.8 0 3.5.5 4.6 3.2l1.4 3.3.7-3.3c.7-2.9 1.1-3.2 4.4-3.2l3.7-.1-2.4-1.9c-1.8-1.6-2.2-2.6-1.7-5 .6-3.4.4-3.6-2.8-1.5-2.1 1.4-2.5 1.4-5-.6l-2.7-2.2.6 3.7zm159.9-.2c.6 3.2.3 3.9-2.1 5.7l-2.8 2 3.7.1c3.2 0 3.9.4 4.4 2.5.3 1.4 1 2.5 1.5 2.5s1.1-1.1 1.5-2.5c.5-2.1 1.2-2.5 4.3-2.5h3.6l-2.8-2.3c-2.5-2-2.7-2.5-1.8-5 1.5-4 1.4-4.1-1.6-1.9-2.8 2-2.8 2-5.7-.1l-2.9-2 .7 3.5zM78.8 241.7c-4.5 7.7-6.1 20.9-3.2 26.4 3 5.8 14.3 8.9 26 7 7-1.1 17.9-4 17.2-4.6-.1-.1-4.3.2-9.1.8C90.2 273.7 79 267 79 252.7c0-3 .5-6.8 1.1-8.5 1.5-4.3.7-5.9-1.3-2.5zm275.8 2c5.5 18.2-5 29.6-26.1 28-4.4-.4-9.1-.9-10.5-1.2l-2.5-.6 2.7 1.5c3.9 2.3 20.4 4.9 26.3 4.1 7.5-.9 13-3.9 15-8.2 2.4-4.9 1.5-14.4-2.1-22.4-3.2-7-4.8-7.8-2.8-1.2z"/></g></svg>