<svg version="1.0" xmlns="http://www.w3.org/2000/svg" viewBox="0 0 518 457"><path d="M144 16.5C95 42.9 57.8 82.8 37 131.3c-16.9 39.6-21.3 85.8-12.9 136.5 6.5 39.4 24.5 81.4 44 102.6 10.8 11.8 14.3 11.2 26-4.6 4.5-6.1 23.1-29.4 41.2-51.7 78.4-96.3 126.8-156.4 126.4-156.8-.2-.1-5.6-1-12-1.9-16.8-2.3-13.8-3.6-50.2 22.1-22.1 15.6-69.1 48.4-88.5 61.7-6.9 4.7-14.7 9.6-17.3 10.9-4.8 2.3-4.9 2.3-6.3.5-3.4-4.8-.6-40.1 5-61 5.2-19.7 15.5-41.6 28.6-61.3 30.5-45.8 78.8-75.6 138.8-85.9 44.9-7.6 92.4 3.2 134.1 30.6 35.2 23.1 61.7 52.9 80.1 90.4 7.4 15 11.4 25.2 15 38.1 2.8 10.2 4.9 14.3 6.1 12.4 2.4-3.7-.1-24.5-5.2-44.3-11.1-42.4-33.6-81.5-65.3-113.2C408.4 40.2 402 35 382 21.7L367.5 12 261 11.4l-106.5-.6-10.5 5.7z" fill="#00000"/><path d="M280.5 163.3c-3.9 1.8-11.7 10.3-23.5 25.7-5.2 6.8-24.4 31.5-42.5 54.9-18.2 23.4-38.9 50.2-46 59.6-13.6 18-26.4 34.7-43 56-22.8 29.4-25.7 34.5-23.6 41.4 1.6 5.5 7.9 11.3 26 24 34.5 24.1 38.4 25.1 97.6 25 20.9-.1 40.4-.4 43.4-.7l5.3-.7-4.8-6.4c-18-23.5-26.9-43.2-32.6-71.3-3-14.7-3.2-40.9-.4-56.3 7.4-41 27.3-92.1 49.6-127 3.9-6.1 8.3-13.4 9.7-16.3 2.5-4.7 2.6-5.3 1.1-6.8-2.1-2.2-12.4-2.8-16.3-1.1z" fill="#45519F"/><path d="M313.7 169.6c-2 1.1-4.2 4.6-8.1 12.7-7.6 15.6-17.2 39.2-21.3 52.2-1.9 6-4.8 14.4-6.3 18.6-2.9 7.8-4.5 14.8-10 43.9-4.5 23.5-5.2 31.9-4 47.9 3.2 41.8 19.6 84.3 36.8 95.1 6.6 4.1 17.5 6.4 27.6 5.7 25-1.6 70.8-26.7 96.9-53 12.3-12.5 27.1-31.7 24.9-32.5-.6-.2-8.2 3.1-16.9 7.2-35.4 16.8-52 17.5-80.8 3.5-12-5.9-19.8-11.8-26.1-20.2-6.4-8.4-13.1-22.6-15-31.7-2.1-10.3-3-44.7-1.5-57.9 2.6-21.7 13.7-70.2 18.5-80.4 3-6.2 3.2-8.9 1-11.1-2-2.1-11.9-2.1-15.7 0z" fill="#5E5F58"/></svg>