<svg width="320" height="111" viewBox="0 0 320 111" fill="none" xmlns="http://www.w3.org/2000/svg">
  <rect width="320" height="110.962" fill="#500E8A"/>
  <path fill-rule="evenodd" clip-rule="evenodd" d="M102.61 38.6575V57.9863H105.891H109.172V49.6227C109.172 40.6319 109.156 40.8939 109.775 40.2296C109.902 40.0921 110.008 39.9403 110.008 39.8924C110.008 39.7191 111.346 38.5329 111.894 38.2201C112.202 38.0447 112.534 37.8349 112.632 37.7547C113.41 37.1198 116.243 36.5814 117.366 36.8556C118.066 37.0267 119.433 37.6023 119.433 37.7261C119.433 37.7755 119.594 37.8994 119.791 38.001C119.988 38.1027 120.149 38.2559 120.149 38.3411C120.149 38.4262 120.283 38.6224 120.447 38.7763C120.611 38.9309 120.746 39.102 120.746 39.1564C120.746 39.2116 120.848 39.4843 120.972 39.7621C121.463 40.8552 121.462 40.8402 121.462 49.5325V57.9863H124.806H128.151L128.112 48.3513C128.077 39.5022 128.057 38.6632 127.862 38.0604C127.745 37.6996 127.598 37.1992 127.536 36.9487C127.149 35.3945 124.542 32.095 123.7 32.095C123.647 32.095 123.4 31.9654 123.149 31.8079C120.53 30.1542 114.643 30.4964 111.583 32.4787C111.3 32.6612 111.039 32.8109 111.003 32.8109C110.929 32.8109 110.641 33.0636 109.757 33.9026L109.172 34.4574V26.8926V19.3286H105.891H102.61V38.6575ZM257.599 22.2516V25.1745H259.806H262.013V38.5272C262.013 53.2615 262.001 52.9945 262.755 54.4849C264.045 57.0349 265.958 57.8854 270.574 57.9598L273.348 58.0057V55.0727V52.1397H271.616C269.57 52.1397 269.235 52.008 268.817 51.0437C268.579 50.4917 268.576 50.287 268.576 34.9062V19.3286H263.087H257.599V22.2516ZM81.1934 30.8615C81.0617 30.8951 80.4009 31.0548 79.7244 31.2159C78.6391 31.4736 77.8674 31.7578 76.838 32.2797C76.1321 32.6369 75.7011 32.8753 75.6453 32.9383C75.6124 32.9755 75.3253 33.1824 75.0074 33.3986C74.1971 33.9505 72.9228 35.2377 72.2971 36.1368C71.7452 36.93 71.738 36.9415 71.4373 37.5235C71.3357 37.7204 71.1696 38.0425 71.0679 38.2394C69.488 41.2934 69.2711 47.1378 70.6248 50.1596C70.7458 50.4288 70.8847 50.7802 70.9341 50.9413C71.3042 52.1519 73.1111 54.5551 74.4519 55.6218C74.9444 56.0134 75.4305 56.4007 75.5329 56.483C76.1321 56.9641 78.5783 58.0565 79.4194 58.2183C79.7387 58.2791 80.3486 58.4137 80.7753 58.5161C83.1349 59.0831 87.0099 58.7516 89.3065 57.7859C90.6151 57.2354 90.9931 57.0342 91.7963 56.4644C92.3633 56.062 94.4967 53.9495 94.4967 53.7898C94.4967 53.7268 94.6234 53.5042 94.778 53.2951C95.4438 52.3967 96.4353 50.0415 96.5577 49.0671L96.6214 48.5603H93.3004H89.9787L89.8985 48.8288C88.645 53.0095 81.8305 54.1413 78.5804 50.7087C76.0369 48.0219 75.7233 41.5217 78.0363 39.4285C78.1645 39.3118 78.2697 39.1679 78.2697 39.1078C78.2697 38.8078 79.5612 37.8163 80.5004 37.3954C83.7677 35.93 87.4932 36.8284 89.1991 39.4922C89.3881 39.7879 89.5757 40.0563 89.6165 40.0892C89.6566 40.1215 89.7554 40.3498 89.8355 40.5961L89.9816 41.0435H93.3054H96.6293L96.562 40.5961C96.5011 40.193 96.3501 39.7191 95.8647 38.4134C95.6005 37.7003 94.8739 36.3158 94.6799 36.1555C94.579 36.0717 94.4967 35.9378 94.4967 35.8577C94.4967 35.5334 91.6567 32.8109 91.3188 32.8109C91.2401 32.8109 91.1578 32.7615 91.1363 32.7006C90.7404 31.6067 83.4992 30.2673 81.1934 30.8615ZM178.076 31.019C177.616 31.1471 177.017 31.3068 176.743 31.3734C176.469 31.4407 175.991 31.6304 175.681 31.795C175.371 31.9604 175.077 32.095 175.028 32.095C174.786 32.095 173.237 33.2318 172.461 33.977L171.932 34.4875V32.9311V31.3755L168.621 31.407L165.31 31.4385L165.279 44.7124L165.249 57.9863H168.59H171.932V49.6126V41.239L172.416 40.4959C172.993 39.6089 174.595 38.0604 174.935 38.0604C175.012 38.0604 175.166 37.9781 175.278 37.8772C175.777 37.424 178.072 36.7482 179.107 36.7482C179.896 36.7482 181.396 37.1183 181.538 37.3481C181.577 37.4118 181.687 37.4641 181.781 37.4641C182.173 37.4641 183.167 38.5129 183.647 39.4328C184.294 40.6748 184.334 41.2926 184.337 50.0815L184.34 57.9863H187.626H190.911L190.877 48.1723L190.842 38.359L190.465 37.278C189.329 34.015 187.468 32.1394 184.399 31.1658C183.056 30.7391 179.383 30.6539 178.076 31.019ZM210.467 31.1199C209.18 31.465 207.298 32.2854 207.018 32.6219C206.932 32.7257 206.808 32.8109 206.744 32.8109C206.606 32.8109 206.099 33.2196 205.31 33.9677L204.743 34.5046V32.9419V31.3791H201.462H198.18V44.6824V57.9863H201.462H204.743V49.7086C204.743 40.6734 204.711 41.1029 205.447 40.1487C208.043 36.7862 212.633 35.7632 215.346 37.943C215.617 38.1614 215.839 38.4083 215.839 38.4921C215.839 38.5766 215.92 38.6904 216.018 38.7455C216.117 38.8007 216.399 39.3268 216.644 39.9153L217.092 40.9841L217.125 49.4852L217.159 57.9863H220.501H223.844L223.803 48.5904L223.763 39.1944L223.442 37.9724C222.51 34.4223 220.508 32.2675 217.092 31.135C215.691 30.6704 212.17 30.6625 210.467 31.1199ZM238.747 31.1836C237.46 31.5273 235.792 32.2088 234.989 32.7192C234.424 33.0779 233.538 33.7036 233.319 33.8997C232.132 34.9542 231.051 36.2714 230.464 37.3753C230.313 37.6588 230.132 37.996 230.061 38.1249C228.574 40.8173 228.27 44.5893 229.189 48.919C229.339 49.6248 230.099 51.5155 230.399 51.9264C230.528 52.1039 230.634 52.3287 230.634 52.4261C230.634 52.5234 230.686 52.6351 230.75 52.6752C230.815 52.7146 231.053 53.0274 231.281 53.3696C232.686 55.4879 236.009 57.768 238.346 58.2183C238.665 58.2798 239.302 58.4237 239.762 58.5376C240.953 58.8332 244.184 58.8296 245.429 58.5304C245.921 58.4123 246.538 58.2756 246.801 58.2269C249.969 57.637 253.982 54.5558 255.348 51.6622C255.487 51.3673 255.648 51.0322 255.705 50.9184C256.057 50.2154 256.129 50.2305 252.397 50.2305H248.984L248.489 50.7523C246.961 52.3609 244.486 53.1233 241.611 52.8713C238.298 52.5821 236.106 50.4395 235.461 46.8601L235.38 46.4126H245.698H256.016L256.09 45.9652C256.377 44.2349 255.84 40.372 255.081 38.6933C254.956 38.4184 254.855 38.1227 254.854 38.0375C254.854 37.9516 254.693 37.6402 254.497 37.3445C254.3 37.0496 254.139 36.7511 254.139 36.6809C254.139 36.6115 254.044 36.4504 253.929 36.323C253.814 36.1963 253.625 35.9457 253.51 35.7667C253.206 35.2921 251.37 33.4072 251.212 33.4072C251.138 33.4072 250.952 33.2733 250.798 33.1094C250.644 32.9454 250.42 32.8109 250.3 32.8109C250.18 32.8109 250.082 32.7693 250.082 32.7192C250.082 32.6684 249.854 32.5102 249.575 32.367C247.239 31.1715 245.923 30.8744 242.744 30.825L240.238 30.7856L238.747 31.1836ZM285.399 30.9624C279.923 32.1537 277.537 34.6664 277.527 39.2538C277.522 41.2182 278.004 42.7595 278.978 43.8977C279.339 44.3187 280.75 45.4584 280.91 45.4584C280.947 45.4584 281.262 45.5879 281.61 45.7476C282.783 46.2838 285.037 46.7334 287.308 46.8844C292.902 47.2552 294.228 47.8401 294.228 49.9348C294.228 54.0712 285.049 54.2516 283.733 50.141L283.571 49.6341H280.174H276.777L276.844 50.141C277.016 51.4453 277.18 52.0359 277.638 52.9945C277.91 53.5636 278.21 54.0934 278.305 54.1728C278.401 54.2516 278.479 54.3783 278.479 54.4542C278.479 54.53 278.626 54.7334 278.807 54.9059C278.987 55.0784 279.35 55.4392 279.612 55.707C279.875 55.9754 280.154 56.1952 280.233 56.1952C280.311 56.1959 280.419 56.2725 280.471 56.3656C281.131 57.5339 285.552 58.7459 289.158 58.7459C295.066 58.7459 298.737 56.7994 300.258 52.8592L300.671 51.7911V49.7021C300.671 45.3896 298.619 42.8053 294.646 42.113C294.318 42.0558 293.673 41.9248 293.214 41.8224C292.755 41.7193 291.297 41.5847 289.974 41.5239C287.389 41.4036 287.389 41.4036 285.887 41.0092C284.229 40.5732 283.467 39.3354 284.146 38.18C284.242 38.016 284.355 37.7877 284.397 37.6731C284.438 37.5579 284.516 37.4641 284.569 37.4641C284.622 37.4641 284.827 37.3274 285.026 37.1598C285.888 36.4347 288.881 36.0395 290.41 36.449C290.836 36.5628 291.32 36.6859 291.484 36.7217C291.971 36.8277 293.03 37.6853 293.372 38.2501L293.69 38.7763H297.002C298.823 38.7763 300.313 38.7312 300.313 38.6761C300.313 38.621 300.211 38.1764 300.086 37.6875C299.63 35.9035 298.733 34.4567 297.33 33.2411C297.046 32.9941 295.652 32.095 295.555 32.095C295.506 32.095 295.195 31.9647 294.865 31.805C293.03 30.9202 287.754 30.4506 285.399 30.9624ZM135.898 34.3622V37.3445L142.849 37.3453C147.058 37.346 149.966 37.3925 150.223 37.4641C151.102 37.7082 151.648 38.6918 151.648 40.0313V40.7794L150.962 40.8989C150.585 40.9641 149.363 41.1337 148.247 41.2755C147.132 41.4172 145.199 41.6628 143.952 41.821C142.706 41.9799 141.355 42.1367 140.95 42.1703C136.56 42.5326 133.63 45.8056 133.633 50.345C133.633 52.4812 133.879 53.4262 134.86 55.0648C135.142 55.5373 136.51 56.9125 136.697 56.9125C136.776 56.9125 136.884 56.9855 136.936 57.075C137.067 57.2969 138.687 58.1202 139.224 58.2369C139.462 58.2892 140.006 58.4252 140.433 58.5397C143.844 59.4568 148.659 58.166 150.98 55.7113L151.648 55.0047V56.4951V57.9863H154.869H158.091V47.8745C158.091 35.111 158.129 35.353 155.81 33.2189C155.022 32.493 153.092 31.7506 151.35 31.5029C150.87 31.4342 147.407 31.3827 143.207 31.3812L135.898 31.3791V34.3622ZM14.3177 43.0716V51.0659H22.2518H30.1867V59V66.9349H38.1802H46.1745V58.8812V50.8275H38.2998H30.4251V43.1232C30.4251 36.605 30.3986 35.3923 30.2547 35.2484C30.1101 35.1038 28.8737 35.0781 22.201 35.0781H14.3177V43.0716ZM243.878 36.6831C245.185 36.8592 246.5 37.3753 246.837 37.8435C246.923 37.9631 247.069 38.0604 247.162 38.0604C247.255 38.0604 247.415 38.2215 247.517 38.4184C247.618 38.6152 247.751 38.7763 247.81 38.7763C247.969 38.7763 248.722 40.314 248.818 40.8345L248.9 41.2819H242.332C238.72 41.2819 235.765 41.2418 235.766 41.1924C235.771 40.9648 236.159 40.0148 236.368 39.722C236.495 39.5423 236.6 39.3605 236.6 39.3175C236.6 39.1579 237.619 38.0604 237.766 38.0604C237.851 38.0604 237.948 37.9867 237.983 37.8965C238.121 37.535 239.841 36.8313 240.953 36.6809C242.377 36.4876 242.427 36.4876 243.878 36.6831ZM151.646 47.576C151.645 48.5646 151.593 49.1853 151.497 49.3492C151.416 49.4881 151.232 49.816 151.088 50.0773C148.832 54.1757 140.755 54.7799 140.26 50.8869C139.959 48.5202 141.385 47.3419 145.086 46.8987C145.709 46.8243 147.132 46.6303 148.247 46.4678C149.363 46.3053 150.491 46.1542 150.753 46.1334C151.016 46.112 151.324 46.0855 151.439 46.0747C151.628 46.0568 151.648 46.1986 151.646 47.576ZM216.674 82.9227V94.2573H218.166H219.657V93.3023V92.3473L220.224 92.9236C220.535 93.2407 221.167 93.7104 221.625 93.9681L222.461 94.4363H224.191H225.921L226.816 94.0067C227.735 93.565 229.202 92.2872 229.202 91.9278C229.202 91.8312 229.243 91.7517 229.294 91.7517C229.473 91.7517 230.225 90.1152 230.471 89.1917C230.734 88.2059 230.691 84.6716 230.406 83.7982C230.008 82.5777 229.708 81.8596 229.512 81.6642C229.407 81.5597 229.321 81.4208 229.321 81.3556C229.321 81.1473 228.088 79.9267 227.451 79.5029C225.06 77.9158 221.212 78.5236 219.887 80.697C219.658 81.0722 219.658 81.06 219.657 76.3309L219.657 71.5881H218.166H216.674V82.9227ZM272.99 74.0336V76.4798H275.317H277.643V78.6274V80.7751H275.317H272.99V85.1083C272.99 91.3465 273.288 92.2965 275.639 93.5543C277.12 94.3468 280.634 94.2373 281.969 93.356L282.416 93.0611V91.0938C282.416 89.9355 282.37 89.1273 282.303 89.1273C282.241 89.1273 281.938 89.2611 281.629 89.4251C280.783 89.8754 279.026 89.8675 278.484 89.4108C277.793 88.8302 277.763 88.629 277.763 84.638V81.0135H280.089H282.416V78.6868V76.3602H280.089H277.763V73.9742V71.5881H275.377H272.99V74.0336ZM261.834 75.8441C260.198 76.207 258.439 76.9794 258.189 77.4455C258.123 77.5708 257.989 77.6731 257.893 77.6731C257.797 77.6731 257.718 77.7218 257.718 77.7812C257.718 77.8407 257.53 78.1141 257.301 78.389C257.071 78.6639 256.883 78.951 256.882 79.0262C256.882 79.102 256.804 79.3132 256.709 79.4958C255.346 82.1088 257.359 85.7161 260.557 86.3912C260.801 86.442 261.429 86.5923 261.954 86.7248C262.479 86.8572 263.203 87.0297 263.565 87.1078C266.214 87.6833 266.569 89.7222 264.125 90.3285C262.45 90.7445 260.369 89.6427 260.157 88.2274C260.113 87.9346 260.048 87.6955 260.013 87.6955C259.977 87.6955 259.326 87.8523 258.565 88.0449C257.804 88.2374 256.923 88.4286 256.608 88.4708C255.77 88.5825 255.744 89.5568 256.545 90.7738C256.731 91.0559 256.883 91.3186 256.883 91.358C256.883 91.4339 257.746 92.2543 258.217 92.6265C260.925 94.767 266.371 94.5522 268.823 92.2084C270.769 90.3479 270.939 87.0326 269.186 85.1083C268.343 84.1834 266.612 83.2585 265.414 83.0924C262.188 82.6471 260.874 82.0472 260.888 81.0278C260.912 79.3984 265.096 78.9653 265.636 80.5367C265.669 80.6347 265.778 80.8495 265.875 81.0135C265.972 81.1781 266.084 81.4122 266.123 81.5339C266.207 81.8045 266.721 81.7537 268.437 81.3048C269.05 81.1452 269.715 81.0135 269.914 81.0135C271.099 81.0135 269.13 77.7032 267.41 76.8033C265.81 75.9679 263.26 75.5283 261.834 75.8441ZM290.927 75.8813C289.465 76.1905 287.623 76.9637 287.217 77.4383C287.107 77.5672 286.961 77.6731 286.893 77.6731C286.75 77.6731 285.325 79.2016 285.086 79.6089C284.548 80.5309 283.923 81.9985 283.829 82.5626C283.442 84.8871 283.625 87.1743 284.326 88.7708C284.728 89.6871 285.582 91.0358 285.761 91.0358C285.824 91.0358 285.876 91.1031 285.876 91.1854C285.877 91.436 287.924 93.0646 288.239 93.0646C288.301 93.0646 288.59 93.1971 288.881 93.3596C291.107 94.6045 296.086 94.1657 297.794 92.5743C297.927 92.4504 298.084 92.3488 298.142 92.3488C298.643 92.3488 300.671 89.2747 300.671 88.5152C300.671 88.1172 300.647 88.095 299.985 87.8874C299.608 87.7692 298.95 87.5466 298.523 87.3934C297.71 87.0999 296.879 86.8622 296.669 86.8608C296.601 86.8601 296.394 87.1572 296.21 87.5208C294.149 91.5913 288.47 89.7057 288.47 84.9508C288.47 80.2009 294.225 78.3275 296.062 82.4803C296.412 83.2735 296.362 83.2685 297.927 82.6693C298.419 82.481 298.888 82.3271 298.969 82.3264C299.343 82.3249 300.671 81.6749 300.671 81.4931C300.671 81.2203 299.782 79.4135 299.403 78.9166C298.924 78.2888 298.34 77.6731 298.224 77.6731C298.166 77.6731 297.982 77.5464 297.814 77.3911C296.567 76.2392 292.968 75.4503 290.927 75.8813ZM231.946 79.1622C231.946 79.2595 232.102 79.6755 232.292 80.0871C232.483 80.498 232.749 81.1029 232.883 81.4315C233.441 82.7888 233.769 83.6057 233.935 84.0524C234.032 84.3122 234.241 84.8105 234.4 85.1591C234.56 85.5078 234.69 85.8442 234.69 85.9058C234.69 85.9674 234.817 86.3017 234.971 86.6482C235.461 87.7463 236.004 89.0643 236.003 89.1538C236.003 89.201 236.135 89.5232 236.295 89.8697C236.59 90.5025 236.954 91.4031 237.273 92.2886C237.368 92.5513 237.555 93.0024 237.688 93.2916C237.822 93.5801 237.905 93.9022 237.872 94.0075C237.796 94.2602 237.347 95.3562 236.998 96.1401C236.844 96.4866 236.719 96.8352 236.719 96.9154C236.718 96.9956 236.557 97.4015 236.361 97.8181C236.164 98.234 236.003 98.6449 236.003 98.7316C236.003 98.8182 235.842 99.2298 235.645 99.6458C235.123 100.748 235.073 100.7 236.756 100.7H238.226L238.426 100.279C238.537 100.047 238.628 99.8004 238.628 99.7317C238.628 99.6622 238.789 99.2577 238.986 98.8325C239.182 98.4073 239.344 98.0107 239.344 97.9513C239.344 97.8918 239.505 97.4909 239.701 97.0614C239.898 96.6319 240.059 96.2274 240.059 96.163C240.059 96.0985 240.194 95.7678 240.358 95.4278C240.522 95.0877 240.656 94.7405 240.656 94.656C240.656 94.5716 240.818 94.1506 241.014 93.7204C241.211 93.2909 241.372 92.8885 241.372 92.8262C241.372 92.764 241.504 92.4296 241.665 92.0832C241.826 91.7367 242.037 91.2391 242.133 90.9764C242.674 89.4988 242.911 88.891 243.143 88.3878C243.284 88.0799 243.4 87.7843 243.4 87.7313C243.4 87.6425 243.746 86.7835 244.423 85.1899C244.576 84.8284 244.738 84.3996 244.784 84.2349C244.829 84.071 244.983 83.6687 245.128 83.3401C245.272 83.0122 245.447 82.5827 245.517 82.3858C245.712 81.8339 246.142 80.7822 246.457 80.0864C246.965 78.9632 246.976 78.9732 245.231 79.0118L243.72 79.0448L243.542 79.5817C243.444 79.8773 243.211 80.4565 243.025 80.8696C242.838 81.2833 242.685 81.6756 242.685 81.7422C242.685 81.8095 242.551 82.1574 242.386 82.5161C242.222 82.8747 242.088 83.222 242.088 83.2871C242.088 83.3522 241.927 83.7603 241.73 84.1948C241.533 84.6287 241.372 85.0331 241.372 85.0933C241.372 85.1534 241.266 85.4362 241.135 85.7225C240.918 86.1986 240.551 87.1335 240.102 88.3513C239.651 89.574 239.344 90.0558 239.344 89.5403C239.344 89.4401 239.201 89.0779 239.027 88.735C238.853 88.3928 238.67 87.9518 238.621 87.7549C238.512 87.3197 238.124 86.3425 237.66 85.3367C237.471 84.925 237.315 84.5227 237.315 84.4418C237.316 84.3072 237.035 83.5942 236.293 81.8489C236.14 81.4881 235.977 81.0586 235.933 80.8946C235.889 80.7307 235.725 80.3312 235.569 80.0069C235.414 79.6833 235.287 79.3204 235.287 79.2016C235.287 79.0033 235.15 78.9854 233.616 78.9854C232.221 78.9854 231.946 79.0147 231.946 79.1622ZM224.892 81.5933C228.307 82.8912 228.741 88.9726 225.576 91.1983C224.478 91.9708 222.663 91.9865 221.716 91.232C220.088 89.9362 219.551 88.5073 219.699 85.865C219.882 82.6199 222.318 80.6154 224.892 81.5933Z" fill="#FCFCFC"/>
  <path fill-rule="evenodd" clip-rule="evenodd" d="M30.2153 27.2928L30.2461 35.257L38.2103 35.2878L46.1745 35.3179V27.3236V19.3286H38.1795H30.1845L30.2153 27.2928Z" fill="#FC345C"/>
</svg>
