<svg xmlns="http://www.w3.org/2000/svg" width="400" height="165.805" viewBox="0 0 400 165.805"><g fill-rule="evenodd"><path d="M123.333 53.167v27h9.167V68.484c0-12.559-.023-12.193.842-13.121.178-.192.325-.404.325-.471 0-.242 1.87-1.899 2.635-2.336.43-.245.894-.538 1.031-.65 1.086-.887 5.044-1.639 6.613-1.256.978.239 2.887 1.043 2.887 1.216 0 .069.225.242.5.384.275.142.5.356.5.475s.188.393.417.608c.229.216.417.455.417.531 0 .077.142.458.316.846.685 1.527.684 1.506.684 13.648v11.809h9.344l-.054-13.459c-.049-12.361-.078-13.533-.35-14.375a29.281 29.281 0 0 1-.455-1.553c-.541-2.171-4.183-6.78-5.358-6.78-.074 0-.42-.181-.77-.401-3.658-2.31-11.882-1.832-16.157.937-.395.255-.759.464-.81.464-.103 0-.505.353-1.74 1.525l-.817.775V26.167h-9.167v27m216.5-22.917v4.083H346v18.652c0 20.582-.017 20.209 1.036 22.291 1.802 3.562 4.474 4.75 10.922 4.854l3.875.064V72h-2.419c-2.858 0-3.327-.184-3.91-1.531-.333-.771-.337-1.057-.337-22.542v-21.76h-15.334v4.083M93.417 42.277c-.184.047-1.107.27-2.052.495-1.516.36-2.594.757-4.032 1.486-.986.499-1.588.832-1.666.92-.046.052-.447.341-.891.643-1.132.771-2.912 2.569-3.786 3.825-.771 1.108-.781 1.124-1.201 1.937l-.516 1c-2.207 4.266-2.51 12.43-.619 16.651.169.376.363.867.432 1.092.517 1.691 3.041 5.048 4.914 6.538a670.77 670.77 0 0 1 1.51 1.203c.837.672 4.254 2.198 5.429 2.424.446.085 1.298.273 1.894.416 3.296.792 8.709.329 11.917-1.02 1.828-.769 2.356-1.05 3.478-1.846.792-.562 3.772-3.513 3.772-3.736 0-.088.177-.399.393-.691.93-1.255 2.315-4.545 2.486-5.906l.089-.708h-9.279l-.112.375c-1.751 5.84-11.27 7.421-15.81 2.626-3.553-3.753-3.991-12.833-.76-15.757.179-.163.326-.364.326-.448 0-.419 1.804-1.804 3.116-2.392 4.564-2.047 9.768-.792 12.151 2.929.264.413.526.788.583.834.056.045.194.364.306.708l.204.625h9.286l-.094-.625c-.085-.563-.296-1.225-.974-3.049-.369-.996-1.384-2.93-1.655-3.154-.141-.117-.256-.304-.256-.416 0-.453-3.967-4.256-4.439-4.256-.11 0-.225-.069-.255-.154-.553-1.528-10.668-3.399-13.889-2.569m135.333.22a74.99 74.99 0 0 1-1.862.495c-.383.094-1.05.359-1.483.589-.433.231-.844.419-.913.419-.338 0-2.502 1.588-3.585 2.629l-.74.713v-4.347l-4.625.044-4.625.044-.043 18.542-.042 18.542h9.335V56.773l.676-1.038c.807-1.239 3.045-3.402 3.52-3.402.107 0 .322-.115.478-.256.698-.633 3.903-1.577 5.349-1.577 1.102 0 3.198.517 3.396.838.055.089.208.162.339.162.548 0 1.937 1.465 2.607 2.75.904 1.735.96 2.598.964 14.875l.004 11.042h9.179l-.048-13.709-.049-13.708-.526-1.51c-1.587-4.558-4.186-7.178-8.473-8.538-1.877-.596-7.007-.715-8.833-.205m45.246.141c-1.798.482-4.427 1.628-4.818 2.098-.12.145-.293.264-.383.264-.192 0-.9.571-2.003 1.616l-.792.75V43h-9.167v37.167H266V68.604c0-12.621-.044-12.021.984-13.354 3.626-4.697 10.038-6.126 13.828-3.081.378.305.688.65.688.767 0 .118.113.277.25.354.138.077.532.812.875 1.634l.625 1.493.047 11.875.047 11.875h9.338l-.057-13.125-.056-13.125-.448-1.707c-1.303-4.959-4.099-7.969-8.871-9.551-1.957-.649-6.875-.66-9.254-.021m39.504.089c-1.798.48-4.128 1.432-5.25 2.145-.789.501-2.026 1.375-2.333 1.649-1.657 1.473-3.168 3.313-3.987 4.855-.211.396-.464.867-.564 1.047-2.077 3.761-2.502 9.03-1.217 15.078.209.986 1.271 3.627 1.689 4.201.181.248.329.562.329.698 0 .136.073.292.162.348.09.055.423.492.741.97 1.963 2.959 6.605 6.144 9.869 6.773a48.49 48.49 0 0 1 1.978.446c1.664.413 6.178.408 7.916-.01a49.79 49.79 0 0 1 1.917-.424c4.426-.824 10.031-5.128 11.939-9.17.195-.412.42-.88.499-1.039.492-.982.592-.961-4.621-.961H327.8l-.692.729c-2.134 2.247-5.591 3.312-9.608 2.96-4.628-.404-7.69-3.397-8.591-8.397l-.113-.625h28.827l.103-.625c.4-2.417-.349-7.813-1.41-10.158-.174-.384-.316-.797-.317-.916 0-.12-.225-.555-.499-.968-.274-.412-.499-.829-.499-.927-.001-.097-.133-.322-.294-.5a7.175 7.175 0 0 1-.585-.777c-.425-.663-2.99-3.296-3.21-3.296-.103 0-.363-.187-.579-.416-.215-.229-.528-.417-.695-.417-.168 0-.305-.058-.305-.128 0-.071-.318-.292-.708-.492-3.263-1.67-5.101-2.085-9.542-2.154l-3.5-.055-2.083.556m65.167-.309c-7.65 1.664-10.983 5.174-10.997 11.582-.006 2.744.667 4.897 2.028 6.487.503.588 2.474 2.18 2.698 2.18.052 0 .492.181.978.404 1.638.749 4.787 1.377 7.959 1.588 7.814.518 9.667 1.335 9.667 4.261 0 5.778-12.822 6.03-14.66.288l-.227-.708h-9.49l.094.708c.24 1.822.469 2.647 1.109 3.986.379.795.798 1.535.932 1.646.133.11.242.287.242.393 0 .106.206.39.458.631s.759.745 1.125 1.119c.367.375.757.682.867.682.11.001.26.108.333.238.922 1.632 7.098 3.325 12.134 3.325 8.253 0 13.381-2.719 15.506-8.223l.577-1.492v-2.918c0-6.024-2.866-9.634-8.417-10.601a54.96 54.96 0 0 1-2-.406c-.641-.144-2.678-.332-4.525-.417-3.612-.168-3.611-.168-5.71-.719-2.316-.609-3.38-2.338-2.432-3.952.135-.229.293-.548.351-.708.058-.161.166-.292.24-.292.074 0 .361-.191.639-.425 1.204-1.013 5.385-1.565 7.521-.993.595.159 1.271.331 1.5.381.68.148 2.16 1.346 2.637 2.135l.444.735h4.626c2.544 0 4.626-.063 4.626-.14 0-.077-.143-.698-.317-1.381-.638-2.492-1.89-4.513-3.85-6.211-.397-.345-2.344-1.601-2.48-1.601-.068 0-.502-.182-.964-.405-2.563-1.236-9.932-1.892-13.222-1.177m-208.834 4.749v4.166l9.709.001c5.88.001 9.942.066 10.301.166 1.228.341 1.99 1.715 1.99 3.586v1.045l-.958.167c-.527.091-2.233.328-3.792.526l-6 .762c-1.741.222-3.628.441-4.193.488-6.133.506-10.225 5.078-10.222 11.419.001 2.984.344 4.304 1.714 6.593.394.66 2.305 2.581 2.566 2.581.111 0 .262.102.335.227.182.31 2.446 1.46 3.195 1.623a48.6 48.6 0 0 1 1.689.423c4.765 1.281 11.491-.522 14.733-3.951l.933-.987v4.165h9V66.042c0-17.829.053-17.491-3.186-20.472-1.101-1.014-3.796-2.051-6.23-2.397-.671-.096-5.508-.168-11.375-.17L169.833 43v4.167M0 59.333V70.5h22.167v22.167H44.5v-22.5h-22V59.405c0-9.105-.037-10.799-.238-11-.202-.202-1.929-.238-11.25-.238H0v11.166m320.667-8.924c1.826.246 3.663.967 4.134 1.621.12.167.324.303.454.303s.353.225.495.5c.142.275.327.5.41.5.222 0 1.273 2.148 1.407 2.875l.115.625h-9.174c-5.046 0-9.174-.056-9.172-.125.006-.318.549-1.645.84-2.054.178-.251.324-.505.324-.565 0-.223 1.424-1.756 1.63-1.756.118 0 .253-.103.302-.229.193-.505 2.596-1.488 4.149-1.698 1.99-.27 2.059-.27 4.086.003M191.831 65.625c-.002 1.381-.075 2.248-.208 2.477-.114.194-.371.652-.572 1.017-3.151 5.725-14.434 6.569-15.125 1.131-.421-3.306 1.571-4.952 6.741-5.571.87-.104 2.858-.375 4.416-.602 1.559-.227 3.134-.438 3.5-.467.367-.03.798-.067.959-.082.264-.025.291.173.289 2.097M282.667 115v15.833h4.166v-2.668l.792.805c.435.443 1.317 1.099 1.958 1.459l1.167.654h4.833l1.25-.6c1.284-.617 3.334-2.402 3.334-2.904 0-.135.057-.246.128-.246.25 0 1.3-2.286 1.644-3.576.367-1.377.308-6.314-.09-7.534-.556-1.705-.976-2.708-1.25-2.981-.146-.146-.266-.34-.266-.431 0-.291-1.722-1.996-2.613-2.588-3.339-2.217-8.714-1.368-10.565 1.668-.32.524-.32.507-.321-6.099l-.001-6.625h-4.166V115m78.666-12.417V106h6.5v6h-6.5v6.053c0 8.714.416 10.041 3.7 11.798 2.069 1.107 6.978.954 8.842-.277l.625-.412v-2.748c0-1.618-.065-2.747-.158-2.747-.087 0-.51.187-.941.416-1.182.629-3.637.618-4.394-.02-.965-.811-1.007-1.092-1.007-6.667v-5.063h6.5v-6.5H368v-6.666h-6.667v3.416m-15.583 2.529c-2.286.507-4.743 1.586-5.092 2.237-.093.175-.28.318-.414.318-.134 0-.244.068-.244.151 0 .083-.263.465-.583.849-.321.384-.584.785-.585.89 0 .106-.109.401-.242.656-1.904 3.65.909 8.689 5.376 9.632.34.071 1.217.281 1.951.466.733.185 1.745.426 2.25.535 3.701.804 4.196 3.652.782 4.499-2.339.581-5.246-.958-5.542-2.935-.061-.409-.152-.743-.202-.743-.049 0-.959.219-2.022.488-1.063.269-2.294.536-2.734.595-1.17.156-1.207 1.517-.088 3.217.26.394.472.761.472.816 0 .106 1.206 1.252 1.864 1.772 3.782 2.99 11.39 2.69 14.815-.584 2.719-2.599 2.956-7.23.507-9.918-1.177-1.292-3.596-2.584-5.269-2.816-4.506-.622-6.342-1.46-6.322-2.884.033-2.276 5.878-2.881 6.632-.686.047.137.198.437.334.666.136.23.292.557.346.727.118.378.836.307 3.233-.32.856-.223 1.785-.407 2.063-.407 1.656 0-1.095-4.624-3.498-5.881-2.234-1.167-5.797-1.781-7.788-1.34m40.639.052c-2.042.432-4.615 1.512-5.183 2.175-.154.18-.358.328-.453.328-.199 0-2.19 2.135-2.523 2.704-.752 1.288-1.625 3.338-1.756 4.126-.541 3.247-.285 6.442.694 8.672.561 1.28 1.755 3.164 2.004 3.164.089 0 .161.094.161.209.001.35 2.861 2.625 3.301 2.625.087 0 .49.185.896.412 3.11 1.739 10.065 1.126 12.451-1.097.186-.173.405-.315.486-.315.7 0 3.533-4.294 3.533-5.355 0-.556-.034-.587-.958-.877a63.597 63.597 0 0 1-2.042-.69c-1.137-.41-2.297-.742-2.59-.744-.096-.001-.384.414-.641.922-2.879 5.686-10.812 3.052-10.812-3.59 0-6.635 8.039-9.252 10.604-3.451.49 1.108.419 1.101 2.606.264.687-.263 1.342-.478 1.455-.479.523-.002 2.378-.91 2.378-1.164 0-.381-1.242-2.905-1.771-3.599-.669-.877-1.485-1.737-1.648-1.737-.081 0-.338-.177-.572-.394-1.742-1.609-6.769-2.711-9.62-2.109M304 109.747c0 .136.217.717.483 1.292.266.574.638 1.419.826 1.878.779 1.896 1.237 3.037 1.469 3.661.135.363.427 1.059.65 1.546.223.487.405.957.405 1.043 0 .086.177.553.392 1.037.684 1.534 1.443 3.375 1.442 3.5 0 .066.184.516.408 1 .411.884.92 2.142 1.366 3.379.133.367.393.997.579 1.401.187.403.303.853.258 1-.107.353-.734 1.884-1.221 2.979-.215.484-.39.971-.39 1.083-.001.112-.226.679-.5 1.261-.275.581-.5 1.155-.5 1.276s-.225.696-.5 1.277c-.729 1.54-.799 1.473 1.552 1.473h2.053l.28-.589c.155-.324.281-.668.281-.764 0-.097.225-.662.5-1.256s.5-1.148.5-1.231c0-.083.225-.643.5-1.243.275-.6.5-1.165.5-1.255 0-.09.188-.552.417-1.027.229-.475.417-.96.417-1.078 0-.118.225-.706.5-1.307.275-.6.5-1.162.5-1.249 0-.087.184-.554.409-1.038.225-.484.519-1.179.654-1.546.755-2.064 1.086-2.913 1.41-3.616.198-.43.36-.843.36-.917-.001-.124.482-1.324 1.428-3.55.214-.505.441-1.104.504-1.334.063-.229.279-.791.481-1.25.201-.458.446-1.058.543-1.333.273-.771.873-2.24 1.313-3.212.71-1.569.725-1.555-1.712-1.501l-2.11.046-.249.75a23.12 23.12 0 0 1-.723 1.799c-.261.578-.475 1.126-.475 1.219 0 .094-.187.58-.417 1.081-.229.501-.416.986-.416 1.077 0 .091-.225.661-.5 1.268-.275.606-.5 1.171-.5 1.255 0 .084-.149.479-.331.879-.303.665-.816 1.971-1.444 3.672-.629 1.708-1.059 2.381-1.059 1.661 0-.14-.199-.646-.442-1.125-.243-.478-.499-1.094-.567-1.369-.153-.608-.695-1.973-1.343-3.378-.264-.575-.481-1.137-.481-1.25.001-.188-.392-1.184-1.428-3.622-.214-.504-.441-1.104-.503-1.333-.062-.229-.291-.787-.508-1.24-.217-.452-.394-.959-.394-1.125 0-.277-.192-.302-2.334-.302-1.949 0-2.333.041-2.333.247m-9.854 3.396c4.77 1.813 5.376 10.308.956 13.417-1.534 1.079-4.069 1.101-5.393.047-2.274-1.81-3.024-3.806-2.817-7.497.255-4.533 3.659-7.333 7.254-5.967" fill="#fcfcfc"/><path d="m22.207 37.292.043 11.125 11.125.043 11.125.042V26.167H22.164l.043 11.125" fill="#fc345c"/></g></svg>